<svg width="942" height="154" viewBox="0 0 942 154" fill="none" xmlns="http://www.w3.org/2000/svg">
<path d="M0.699951 4.3999H13.8999V92.5999H62.4999V105.1H0.699951V4.3999Z" fill="white"/>
<path d="M73.8999 9.39993C73.8999 4.69993 77.8999 0.699951 82.6999 0.699951C87.4999 0.699951 91.3999 4.69993 91.3999 9.39993C91.3999 14.1999 87.5999 18.0999 82.6999 18.0999C77.7999 18.0999 73.8999 14.1999 73.8999 9.39993ZM76.3999 34.2H88.5999V105.1H76.3999V34.2Z" fill="white"/>
<path d="M111.7 34.2H123.9V43.0999C128.9 35.9999 137.4 32.7 146.3 32.7C162.3 32.7 173.2 43.7999 173.2 61.4999V105H161.1V63.2999C161.1 50.9999 154.3 43.8999 143.4 43.8999C133.5 43.8999 126.7 49.7 123.8 57.9V105H111.6V34.2H111.7Z" fill="white"/>
<path d="M189.7 69.6999C189.7 49.5999 204.3 32.7998 225.4 32.7998C234.6 32.7998 242.8 35.8998 248.5 41.9998V1.59985H260.7V105.1H248.5V97.2998C242.8 103.4 234.6 106.5 225.4 106.5C204.3 106.5 189.7 89.7999 189.7 69.6999ZM248.6 83.5998V55.6999C244.5 49.1999 237 44.0999 226.5 44.0999C212.2 44.0999 202.4 55.5998 202.4 69.7998C202.4 83.9998 212.2 95.4998 226.5 95.4998C236.9 95.2999 244.4 90.1998 248.6 83.5998Z" fill="white"/>
<path d="M278.2 69.6998C278.2 48.9998 293.5 32.7998 315.1 32.7998C333.7 32.7998 348.7 45.6998 348.9 68.3998C348.9 69.6998 348.9 70.4998 348.8 72.0998H290.7C291.1 85.3998 301.2 95.3998 315.2 95.3998C326.1 95.3998 332.9 90.5998 337.3 83.0998L346.9 89.7998C340.5 100.2 329.7 106.7 315 106.7C293 106.5 278.2 90.4998 278.2 69.6998ZM291.4 62.0998H336.4C334.7 50.4998 325.5 43.4998 314.7 43.4998C304 43.5998 293.7 50.3998 291.4 62.0998Z" fill="white"/>
<path d="M366.1 34.2H378.3V43.0999C383.3 35.9999 391.8 32.7 400.7 32.7C416.7 32.7 427.6 43.7999 427.6 61.4999V105H415.5V63.2999C415.5 50.9999 408.7 43.8999 397.8 43.8999C387.9 43.8999 381.1 49.7 378.2 57.9V105H366V34.2H366.1Z" fill="white"/>
<path d="M449.7 1.59985H461.9V43.0999C466.9 35.9999 475.4 32.6999 484.3 32.6999C500.3 32.6999 511.2 43.7998 511.2 61.4998V105H499.1V63.2998C499.1 50.9998 492.3 43.8998 481.4 43.8998C471.5 43.8998 464.7 49.6999 461.8 57.8999V105H449.6V1.59985H449.7Z" fill="white"/>
<path d="M527.7 69.6998C527.7 49.5998 542.3 32.7998 563.4 32.7998C572.6 32.7998 580.8 35.8998 586.5 41.9998V34.1998H598.7V105.1H586.5V97.2998C580.8 103.4 572.6 106.5 563.4 106.5C542.3 106.5 527.7 89.7998 527.7 69.6998ZM586.5 83.5998V55.6998C582.4 49.1998 574.9 44.0998 564.4 44.0998C550.1 44.0998 540.3 55.5998 540.3 69.7998C540.3 83.9998 550.1 95.4998 564.4 95.4998C574.9 95.2998 582.4 90.1998 586.5 83.5998Z" fill="white"/>
<path d="M616.1 69.6998C616.1 48.9998 631.4 32.7998 653 32.7998C671.6 32.7998 686.6 45.6998 686.8 68.3998C686.8 69.6998 686.8 70.4998 686.7 72.0998H628.6C629 85.3998 639.1 95.3998 653.1 95.3998C664 95.3998 670.8 90.5998 675.2 83.0998L684.8 89.7998C678.4 100.2 667.6 106.7 652.9 106.7C630.9 106.5 616.1 90.4998 616.1 69.6998ZM629.3 62.0998H674.3C672.6 50.4998 663.4 43.4998 652.6 43.4998C642 43.5998 631.6 50.3998 629.3 62.0998Z" fill="white"/>
<path d="M702.4 121L710.8 112.5C716.5 119.2 724.3 123 734.3 123C745.5 123 757.6 116.2 757.6 100.5V94.9998C751.9 101.2 743.6 104.4 734.5 104.4C713.7 104.4 698.5 88.3998 698.6 68.4998C698.7 48.5998 713.6 32.7998 734.5 32.7998C743.6 32.7998 751.9 35.8998 757.6 41.9998V34.1998H769.8V100.8C769.8 123.3 753.5 134 734.3 134C719.8 134 708.3 128.5 702.4 121ZM757.5 81.3998V55.5998C753.4 49.0998 745.9 43.9998 735.4 43.9998C721.4 43.9998 711 54.7998 711.2 68.4998C711.3 82.3998 721.4 92.9998 735.4 92.9998C745.9 93.0998 753.4 87.9998 757.5 81.3998Z" fill="white"/>
<path d="M792.7 1.59985H804.9V43.0999C809.9 35.9999 818.4 32.6999 827.3 32.6999C843.3 32.6999 854.2 43.7998 854.2 61.4998V105H842.1V63.2998C842.1 50.9998 835.3 43.8998 824.4 43.8998C814.5 43.8998 807.7 49.6999 804.8 57.8999V105H792.6V1.59985H792.7Z" fill="white"/>
<path d="M870.7 69.6998C870.7 48.9998 886 32.7998 907.6 32.7998C926.2 32.7998 941.2 45.6998 941.3 68.3998C941.3 69.6998 941.3 70.4998 941.2 72.0998H883C883.4 85.3998 893.5 95.3998 907.5 95.3998C918.4 95.3998 925.2 90.5998 929.6 83.0998L939.2 89.7998C932.8 100.2 922 106.7 907.3 106.7C885.5 106.5 870.7 90.4998 870.7 69.6998ZM883.9 62.0998H928.9C927.2 50.4998 918 43.4998 907.2 43.4998C896.5 43.5998 886.2 50.3998 883.9 62.0998Z" fill="white"/>
<path d="M1 128.4H4.70001L13.2 148.4L21.7 128.4H25.3L14.6 153.6H11.8L1 128.4Z" fill="white"/>
<path d="M24.8999 144.7C24.8999 139.7 28.5999 135.5 33.7999 135.5C36.0999 135.5 38.1999 136.3 39.5999 137.8V135.8H42.5999V153.5H39.5999V151.5C38.1999 153 36.0999 153.8 33.7999 153.8C28.5999 153.9 24.8999 149.8 24.8999 144.7ZM39.5999 148.2V141.2C38.5999 139.6 36.6999 138.3 34.0999 138.3C30.4999 138.3 28.0999 141.2 28.0999 144.7C28.0999 148.2 30.4999 151.1 34.0999 151.1C36.6999 151.1 38.5999 149.9 39.5999 148.2Z" fill="white"/>
<path d="M48.3999 127.7H51.3999V142.8L59.0999 135.9H63.0999L54.3999 143.7L65.0999 153.6H60.9999L51.3999 144.7V153.6H48.3999V127.7Z" fill="white"/>
<path d="M70.6001 151.6V153.6H67.6001V127.7H70.6001V137.8C72.1001 136.3 74.1001 135.5 76.4001 135.5C81.7001 135.5 85.3001 139.7 85.3001 144.7C85.3001 149.7 81.6001 153.9 76.4001 153.9C74.1001 153.9 72.0001 153.2 70.6001 151.6ZM82.1001 144.7C82.1001 141.2 79.7001 138.3 76.1001 138.3C73.5001 138.3 71.6001 139.6 70.6001 141.2V148.2C71.6001 149.9 73.5001 151.1 76.1001 151.1C79.7001 151.1 82.1001 148.3 82.1001 144.7Z" fill="white"/>
<path d="M88.3 144.7C88.3 139.5 92.1001 135.5 97.5001 135.5C102.1 135.5 105.9 138.7 105.9 144.4C105.9 144.7 105.9 144.9 105.9 145.3H91.4001C91.5001 148.6 94.0001 151.1 97.5001 151.1C100.2 151.1 101.9 149.9 103 148L105.4 149.7C103.8 152.3 101.1 153.9 97.4001 153.9C91.9001 153.9 88.3 149.9 88.3 144.7ZM91.6 142.8H102.8C102.4 139.9 100.1 138.2 97.4001 138.2C94.7001 138.2 92.1 139.9 91.6 142.8Z" fill="white"/>
<path d="M110.2 127.7H113.2V142.8L120.9 135.9H124.9L116.2 143.7L126.9 153.6H122.8L113.2 144.7V153.6H110.2V127.7Z" fill="white"/>
<path d="M140 140.8L135.6 153.6H132.9L126.9 135.9H130.1L134.4 148.8L138.8 135.9H141.1L145.5 148.8L149.8 135.9H153L147 153.6H144.3L140 140.8Z" fill="white"/>
<path d="M154.9 144.7C154.9 139.7 158.6 135.5 163.8 135.5C166.1 135.5 168.2 136.3 169.6 137.8V135.8H172.6V153.5H169.6V151.5C168.2 153 166.1 153.8 163.8 153.8C158.6 153.9 154.9 149.8 154.9 144.7ZM169.7 148.2V141.2C168.7 139.6 166.8 138.3 164.2 138.3C160.6 138.3 158.2 141.2 158.2 144.7C158.2 148.2 160.6 151.1 164.2 151.1C166.8 151.1 168.6 149.9 169.7 148.2Z" fill="white"/>
<path d="M177.1 144.7C177.1 139.7 180.8 135.5 186 135.5C188.3 135.5 190.4 136.3 191.8 137.8V135.8H194.8V153.5H191.8V151.5C190.4 153 188.3 153.8 186 153.8C180.7 153.9 177.1 149.8 177.1 144.7ZM191.8 148.2V141.2C190.8 139.6 188.9 138.3 186.3 138.3C182.7 138.3 180.3 141.2 180.3 144.7C180.3 148.2 182.7 151.1 186.3 151.1C188.9 151.1 190.8 149.9 191.8 148.2Z" fill="white"/>
<path d="M223.4 143.2C223.4 140.2 221.9 138.3 219.4 138.3C217.2 138.3 215.6 139.7 215 141.8C215 142.1 215.1 142.4 215.1 142.7V153.6H212.1V143.2C212.1 140.2 210.6 138.3 208.1 138.3C206 138.3 204.4 139.6 203.7 141.4V153.6H200.7V135.9H203.7V137.8C204.9 136.2 206.9 135.6 208.8 135.6C211 135.6 212.9 136.7 214 138.5C215.4 136.4 217.7 135.6 220 135.6C224.2 135.6 226.6 138.5 226.6 142.8V153.7H223.6V143.2H223.4Z" fill="white"/>
<path d="M231.9 127.7H234.9V138.1C236.1 136.3 238.3 135.5 240.5 135.5C244.5 135.5 247.2 138.3 247.2 142.7V153.6H244.2V143.2C244.2 140.1 242.5 138.3 239.8 138.3C237.3 138.3 235.6 139.8 234.9 141.8V153.6H231.9V127.7Z" fill="white"/>
<path d="M251.4 144.7C251.4 139.5 255.2 135.5 260.6 135.5C265.2 135.5 269 138.7 269 144.4C269 144.7 269 144.9 269 145.3H254.5C254.6 148.6 257.1 151.1 260.6 151.1C263.3 151.1 265 149.9 266.1 148L268.5 149.7C266.9 152.3 264.2 153.9 260.5 153.9C255.1 153.9 251.4 149.9 251.4 144.7ZM254.7 142.8H266C265.6 139.9 263.3 138.2 260.6 138.2C257.9 138.2 255.3 139.9 254.7 142.8Z" fill="white"/>
<path d="M272.8 129.6C272.8 128.4 273.8 127.4 275 127.4C276.2 127.4 277.2 128.4 277.2 129.6C277.2 130.8 276.2 131.8 275 131.8C273.8 131.8 272.8 130.8 272.8 129.6ZM273.4 135.9H276.4V153.6H273.4V135.9Z" fill="white"/>
<path d="M280.9 144.7C280.9 139.7 284.6 135.5 289.8 135.5C292.1 135.5 294.2 136.3 295.6 137.8V127.7H298.6V153.6H295.6V151.6C294.2 153.1 292.1 153.9 289.8 153.9C284.5 153.9 280.9 149.8 280.9 144.7ZM295.6 148.2V141.2C294.6 139.6 292.7 138.3 290.1 138.3C286.5 138.3 284.1 141.2 284.1 144.7C284.1 148.2 286.5 151.1 290.1 151.1C292.7 151.1 294.6 149.9 295.6 148.2Z" fill="white"/>
<path d="M312.3 129.6C312.3 128.4 313.3 127.4 314.5 127.4C315.7 127.4 316.7 128.4 316.7 129.6C316.7 130.8 315.7 131.8 314.5 131.8C313.3 131.8 312.3 130.8 312.3 129.6ZM312.9 135.9H315.9V153.6H312.9V135.9Z" fill="white"/>
<path d="M321.8 135.9H324.8V138.1C326 136.3 328.2 135.5 330.4 135.5C334.4 135.5 337.1 138.3 337.1 142.7V153.6H334.1V143.2C334.1 140.1 332.4 138.3 329.7 138.3C327.2 138.3 325.5 139.8 324.8 141.8V153.6H321.8V135.9Z" fill="white"/>
<path d="M347.7 135.9H351.1L357.2 149.3L363.3 135.9H366.7L358.5 153.6H355.9L347.7 135.9Z" fill="white"/>
<path d="M368 144.7C368 139.5 371.8 135.5 377.2 135.5C381.8 135.5 385.6 138.7 385.6 144.4C385.6 144.7 385.6 144.9 385.6 145.3H371.1C371.2 148.6 373.7 151.1 377.2 151.1C379.9 151.1 381.6 149.9 382.7 148L385.1 149.7C383.5 152.3 380.8 153.9 377.1 153.9C371.7 153.9 368 149.9 368 144.7ZM371.3 142.8H382.5C382.1 139.9 379.8 138.2 377.1 138.2C374.4 138.2 371.9 139.9 371.3 142.8Z" fill="white"/>
<path d="M390 135.9H393V138.5C393.7 137 395.7 135.7 397.8 135.7C398.4 135.7 398.9 135.8 399.4 135.9L399 138.9C398.5 138.7 398 138.7 397.5 138.7C395.7 138.7 393.8 139.9 393.1 142.1V153.6H390.1V135.9H390Z" fill="white"/>
<path d="M404.8 148.3V138.6H400.3V135.8H404.8V130.8H407.8V135.8H413.3V138.6H407.8V147.9C407.8 150.2 409 151 410.6 151C411.8 151 412.6 150.6 413.2 150.3L414.1 152.9C413.4 153.3 412.1 153.7 410.3 153.7C407.3 153.8 404.8 152 404.8 148.3Z" fill="white"/>
<path d="M417.4 135.9H420.4V138.5C421.1 137 423.1 135.7 425.2 135.7C425.8 135.7 426.3 135.8 426.8 135.9L426.4 138.9C425.9 138.7 425.4 138.7 424.9 138.7C423.1 138.7 421.2 139.9 420.5 142.1V153.6H417.5V135.9H417.4Z" fill="white"/>
<path d="M428 144.7C428 139.6 431.9 135.5 437.3 135.5C442.6 135.5 446.6 139.6 446.6 144.7C446.6 149.8 442.7 153.9 437.3 153.9C432 153.9 428 149.8 428 144.7ZM443.5 144.7C443.5 141.2 441.1 138.3 437.4 138.3C433.7 138.3 431.2 141.1 431.2 144.7C431.2 148.2 433.7 151.1 437.4 151.1C441 151.1 443.5 148.3 443.5 144.7Z" fill="white"/>
<path d="M465.7 153.6H462.7V151.4C461.5 153.2 459.3 154 457.3 154C453.4 154 450.7 151.2 450.7 146.8V135.9H453.7V146.3C453.7 149.4 455.3 151.2 458 151.2C460.3 151.2 461.9 149.7 462.7 147.7V135.9H465.7V153.6Z" fill="white"/>
<path d="M482.1 140.8L477.7 153.6H475L469 135.9H472.2L476.5 148.8L480.9 135.9H483.2L487.6 148.8L491.9 135.9H495.1L489.1 153.6H486.4L482.1 140.8Z" fill="white"/>
<path d="M497.1 144.7C497.1 139.7 500.8 135.5 506 135.5C508.3 135.5 510.4 136.3 511.8 137.8V127.7H514.8V153.6H511.8V151.6C510.4 153.1 508.3 153.9 506 153.9C500.7 153.9 497.1 149.8 497.1 144.7ZM511.8 148.2V141.2C510.8 139.6 508.9 138.3 506.3 138.3C502.7 138.3 500.3 141.2 500.3 144.7C500.3 148.2 502.7 151.1 506.3 151.1C508.9 151.1 510.8 149.9 511.8 148.2Z" fill="white"/>
<path d="M519.2 144.7C519.2 139.5 523 135.5 528.4 135.5C533 135.5 536.8 138.7 536.8 144.4C536.8 144.7 536.8 144.9 536.8 145.3H522.3C522.4 148.6 524.9 151.1 528.4 151.1C531.1 151.1 532.8 149.9 533.9 148L536.3 149.7C534.7 152.3 532 153.9 528.3 153.9C522.9 153.9 519.2 149.9 519.2 144.7ZM522.5 142.8H533.7C533.3 139.9 531 138.2 528.3 138.2C525.6 138.2 523.1 139.9 522.5 142.8Z" fill="white"/>
<path d="M549.7 127.7H552.7V138.1C553.9 136.3 556.1 135.5 558.3 135.5C562.3 135.5 565 138.3 565 142.7V153.6H562V143.2C562 140.1 560.3 138.3 557.6 138.3C555.1 138.3 553.4 139.8 552.7 141.8V153.6H549.7V127.7Z" fill="white"/>
<path d="M569.2 144.7C569.2 139.7 572.9 135.5 578.1 135.5C580.4 135.5 582.5 136.3 583.9 137.8V135.8H586.9V153.5H583.9V151.5C582.5 153 580.4 153.8 578.1 153.8C572.9 153.9 569.2 149.8 569.2 144.7ZM583.9 148.2V141.2C582.9 139.6 581 138.3 578.4 138.3C574.8 138.3 572.4 141.2 572.4 144.7C572.4 148.2 574.8 151.1 578.4 151.1C581 151.1 582.9 149.9 583.9 148.2Z" fill="white"/>
<path d="M592.7 135.9H595.7V138.1C596.9 136.3 599.1 135.5 601.3 135.5C605.3 135.5 608 138.3 608 142.7V153.6H605V143.2C605 140.1 603.3 138.3 600.6 138.3C598.1 138.3 596.4 139.8 595.7 141.8V153.6H592.7V135.9Z" fill="white"/>
<path d="M612.2 144.7C612.2 139.7 615.9 135.5 621.1 135.5C623.4 135.5 625.5 136.3 626.9 137.8V127.7H629.9V153.6H626.9V151.6C625.5 153.1 623.4 153.9 621.1 153.9C615.9 153.9 612.2 149.8 612.2 144.7ZM626.9 148.2V141.2C625.9 139.6 624 138.3 621.4 138.3C617.8 138.3 615.4 141.2 615.4 144.7C615.4 148.2 617.8 151.1 621.4 151.1C624 151.1 625.9 149.9 626.9 148.2Z" fill="white"/>
<path d="M634.3 144.7C634.3 139.5 638.1 135.5 643.5 135.5C648.1 135.5 651.9 138.7 651.9 144.4C651.9 144.7 651.9 144.9 651.9 145.3H637.4C637.5 148.6 640 151.1 643.5 151.1C646.2 151.1 647.9 149.9 649 148L651.4 149.7C649.8 152.3 647.1 153.9 643.4 153.9C638 153.9 634.3 149.9 634.3 144.7ZM637.6 142.8H648.8C648.4 139.9 646.1 138.2 643.4 138.2C640.8 138.2 638.2 139.9 637.6 142.8Z" fill="white"/>
<path d="M656.3 135.9H659.3V138.1C660.5 136.3 662.7 135.5 664.9 135.5C668.9 135.5 671.6 138.3 671.6 142.7V153.6H668.6V143.2C668.6 140.1 666.9 138.3 664.2 138.3C661.7 138.3 660 139.8 659.3 141.8V153.6H656.3V135.9Z" fill="white"/>
</svg>
