<svg width="941" height="154" viewBox="0 0 941 154" fill="none" xmlns="http://www.w3.org/2000/svg">
<path d="M0 3.68994H13.19V91.8899H61.83V104.37H0V3.68994Z" fill="url(#paint0_linear_2_3)"/>
<path d="M73.18 8.65C73.18 3.97 77.15 0 81.97 0C86.79 0 90.62 3.97 90.62 8.65C90.62 13.33 86.79 17.3 81.97 17.3C77.15 17.3 73.18 13.47 73.18 8.65ZM75.73 33.47H87.93V104.37H75.73V33.47Z" fill="url(#paint1_linear_2_3)"/>
<path d="M111.04 33.4701H123.24V42.4001C128.2 35.3101 136.71 32.05 145.65 32.05C161.67 32.05 172.59 43.1101 172.59 60.84V104.37H160.54V62.68C160.54 50.34 153.73 43.25 142.81 43.25C132.88 43.25 126.08 49.0601 123.24 57.2901V104.37H111.04V33.4701Z" fill="url(#paint2_linear_2_3)"/>
<path d="M189.04 68.9201C189.04 48.7801 203.65 32.0501 224.78 32.0501C234 32.0501 242.22 35.1701 247.89 41.2701V0.850098H260.09V104.37H247.89V96.5701C242.22 102.67 233.99 105.79 224.78 105.79C203.65 105.79 189.04 89.0601 189.04 68.9201ZM247.89 82.8201V54.8801C243.78 48.3601 236.26 43.2501 225.77 43.2501C211.45 43.2501 201.66 54.7401 201.66 68.9201C201.66 83.1001 211.44 94.5901 225.77 94.5901C236.26 94.5901 243.78 89.4901 247.89 82.8201Z" fill="url(#paint3_linear_2_3)"/>
<path d="M277.53 68.92C277.53 48.22 292.85 32.05 314.4 32.05C332.98 32.05 348.01 44.95 348.15 67.64C348.15 68.92 348.15 69.7701 348.01 71.3301H289.87C290.29 84.66 300.36 94.59 314.4 94.59C325.32 94.59 332.13 89.7701 336.52 82.25L346.16 88.9101C339.78 99.2601 329 105.79 314.25 105.79C292.27 105.79 277.52 89.7701 277.52 68.92H277.53ZM290.72 61.4001H335.67C333.97 49.7701 324.75 42.82 313.97 42.82C303.19 42.82 292.98 49.6301 290.71 61.4001H290.72Z" fill="url(#paint4_linear_2_3)"/>
<path d="M365.46 33.4701H377.66V42.4001C382.62 35.3101 391.13 32.05 400.07 32.05C416.09 32.05 427.01 43.1101 427.01 60.84V104.37H414.96V62.68C414.96 50.34 408.15 43.25 397.23 43.25C387.3 43.25 380.5 49.0601 377.66 57.2901V104.37H365.46V33.4701Z" fill="url(#paint5_linear_2_3)"/>
<path d="M448.99 0.850098H461.19V42.4001C466.15 35.3101 474.66 32.0501 483.6 32.0501C499.62 32.0501 510.54 43.1101 510.54 60.8401V104.37H498.49V62.6801C498.49 50.3401 491.68 43.2501 480.76 43.2501C470.83 43.2501 464.03 49.0601 461.19 57.2901V104.37H448.99V0.850098Z" fill="url(#paint6_linear_2_3)"/>
<path d="M526.98 68.92C526.98 48.78 541.59 32.05 562.72 32.05C571.94 32.05 580.16 35.1701 585.83 41.2701V33.4701H598.02V104.37H585.83V96.5701C580.16 102.67 571.93 105.79 562.72 105.79C541.59 105.79 526.98 89.06 526.98 68.92ZM585.83 82.82V54.8801C581.72 48.3601 574.2 43.25 563.71 43.25C549.39 43.25 539.6 54.74 539.6 68.92C539.6 83.1 549.39 94.59 563.71 94.59C574.2 94.59 581.72 89.4901 585.83 82.82Z" fill="url(#paint7_linear_2_3)"/>
<path d="M615.48 68.92C615.48 48.22 630.8 32.05 652.35 32.05C670.93 32.05 685.96 44.95 686.1 67.64C686.1 68.92 686.1 69.7701 685.96 71.3301H627.82C628.24 84.66 638.31 94.59 652.35 94.59C663.27 94.59 670.08 89.7701 674.47 82.25L684.11 88.9101C677.73 99.2601 666.95 105.79 652.2 105.79C630.22 105.79 615.47 89.7701 615.47 68.92H615.48ZM628.67 61.4001H673.62C671.92 49.7701 662.7 42.82 651.92 42.82C641.14 42.82 630.93 49.6301 628.66 61.4001H628.67Z" fill="url(#paint8_linear_2_3)"/>
<path d="M701.7 120.25L710.07 111.74C715.74 118.4 723.54 122.23 733.61 122.23C744.81 122.23 756.87 115.42 756.87 99.68V94.29C751.2 100.53 742.83 103.65 733.76 103.65C712.91 103.65 697.74 87.63 697.88 67.77C698.02 47.92 712.91 32.03 733.76 32.03C742.84 32.03 751.2 35.15 756.87 41.25V33.45H769.06V100.1C769.06 122.65 752.75 133.28 733.61 133.28C719.15 133.28 707.66 127.75 701.7 120.23V120.25ZM756.86 80.69V54.88C752.75 48.36 745.23 43.25 734.74 43.25C720.7 43.25 710.35 54.03 710.49 67.78C710.63 81.68 720.7 92.31 734.74 92.31C745.23 92.31 752.75 87.2 756.86 80.68V80.69Z" fill="url(#paint9_linear_2_3)"/>
<path d="M792.04 0.850098H804.24V42.4001C809.2 35.3101 817.71 32.0501 826.64 32.0501C842.66 32.0501 853.58 43.1101 853.58 60.8401V104.37H841.53V62.6801C841.53 50.3401 834.72 43.2501 823.8 43.2501C813.87 43.2501 807.07 49.0601 804.23 57.2901V104.37H792.03V0.850098H792.04Z" fill="url(#paint10_linear_2_3)"/>
<path d="M870.03 68.92C870.03 48.22 885.35 32.05 906.9 32.05C925.48 32.05 940.51 44.95 940.65 67.64C940.65 68.92 940.65 69.7701 940.51 71.3301H882.37C882.8 84.66 892.86 94.59 906.9 94.59C917.82 94.59 924.63 89.7701 929.02 82.25L938.66 88.9101C932.28 99.2601 921.5 105.79 906.75 105.79C884.77 105.79 870.02 89.7701 870.02 68.92H870.03ZM883.22 61.4001H928.17C926.47 49.7701 917.25 42.82 906.47 42.82C895.69 42.82 885.48 49.6301 883.21 61.4001H883.22Z" fill="url(#paint11_linear_2_3)"/>
<path d="M0.299988 127.66H3.94999L12.46 147.66L20.94 127.66H24.52L13.81 152.84H11.04L0.299988 127.66Z" fill="#372248"/>
<path d="M24.23 143.98C24.23 138.94 27.88 134.76 33.17 134.76C35.47 134.76 37.53 135.54 38.95 137.07V135.12H42V152.85H38.95V150.9C37.53 152.42 35.47 153.2 33.17 153.2C27.89 153.2 24.23 149.02 24.23 143.98ZM38.95 147.45V140.46C37.92 138.83 36.04 137.55 33.42 137.55C29.84 137.55 27.39 140.42 27.39 143.97C27.39 147.52 29.84 150.39 33.42 150.39C36.04 150.39 37.92 149.11 38.95 147.45Z" fill="#372248"/>
<path d="M47.73 126.95H50.78V142.02L58.51 135.11H62.55L53.83 142.95L64.5 152.84H60.39L50.78 143.97V152.84H47.73V126.95Z" fill="#372248"/>
<path d="M69.89 150.89V152.84H66.84V126.95H69.89V137.06C71.34 135.53 73.4 134.75 75.67 134.75C80.95 134.75 84.61 138.93 84.61 143.97C84.61 149.01 80.96 153.19 75.67 153.19C73.4 153.19 71.34 152.41 69.89 150.89ZM81.45 143.97C81.45 140.42 79 137.55 75.42 137.55C72.8 137.55 70.92 138.83 69.89 140.46V147.45C70.92 149.12 72.8 150.39 75.42 150.39C79 150.39 81.45 147.52 81.45 143.97Z" fill="#372248"/>
<path d="M87.58 143.98C87.58 138.8 91.41 134.76 96.8 134.76C101.45 134.76 105.2 137.99 105.24 143.66C105.24 143.98 105.24 144.19 105.2 144.58H90.66C90.77 147.91 93.28 150.4 96.79 150.4C99.52 150.4 101.22 149.19 102.32 147.32L104.73 148.99C103.13 151.58 100.44 153.21 96.75 153.21C91.25 153.21 87.57 149.2 87.57 143.99L87.58 143.98ZM90.88 142.1H102.12C101.69 139.19 99.39 137.45 96.69 137.45C93.99 137.45 91.44 139.15 90.87 142.1H90.88Z" fill="#372248"/>
<path d="M109.56 126.95H112.61V142.02L120.34 135.11H124.38L115.66 142.95L126.33 152.84H122.22L112.61 143.97V152.84H109.56V126.95Z" fill="#372248"/>
<path d="M139.35 140.07L134.95 152.84H132.26L126.23 135.11H129.42L133.71 148.05L138.14 135.11H140.48L144.91 148.05L149.2 135.11H152.43L146.4 152.84H143.71L139.35 140.07Z" fill="#372248"/>
<path d="M154.27 143.98C154.27 138.94 157.92 134.76 163.21 134.76C165.51 134.76 167.57 135.54 168.99 137.07V135.12H172.04V152.85H168.99V150.9C167.57 152.42 165.51 153.2 163.21 153.2C157.93 153.2 154.27 149.02 154.27 143.98ZM168.99 147.45V140.46C167.96 138.83 166.08 137.55 163.46 137.55C159.88 137.55 157.43 140.42 157.43 143.97C157.43 147.52 159.88 150.39 163.46 150.39C166.08 150.39 167.96 149.11 168.99 147.45Z" fill="#372248"/>
<path d="M176.39 143.98C176.39 138.94 180.04 134.76 185.33 134.76C187.63 134.76 189.69 135.54 191.11 137.07V135.12H194.16V152.85H191.11V150.9C189.69 152.42 187.63 153.2 185.33 153.2C180.05 153.2 176.39 149.02 176.39 143.98ZM191.11 147.45V140.46C190.08 138.83 188.2 137.55 185.58 137.55C182 137.55 179.55 140.42 179.55 143.97C179.55 147.52 182 150.39 185.58 150.39C188.2 150.39 190.08 149.11 191.11 147.45Z" fill="#372248"/>
<path d="M222.74 142.45C222.74 139.44 221.22 137.56 218.7 137.56C216.5 137.56 214.94 138.98 214.3 141.04C214.34 141.36 214.37 141.64 214.37 141.96V152.85H211.32V142.46C211.32 139.45 209.8 137.57 207.31 137.57C205.22 137.57 203.62 138.85 202.95 140.69V152.85H199.9V135.12H202.95V137C204.16 135.44 206.14 134.77 208.02 134.77C210.22 134.77 212.1 135.83 213.2 137.68C214.62 135.62 216.92 134.77 219.16 134.77C223.34 134.77 225.79 137.64 225.79 141.97V152.86H222.74V142.47V142.45Z" fill="#372248"/>
<path d="M231.28 126.95H234.33V137.34C235.57 135.57 237.7 134.75 239.93 134.75C243.94 134.75 246.67 137.52 246.67 141.95V152.84H243.66V142.41C243.66 139.33 241.96 137.55 239.23 137.55C236.75 137.55 235.05 139 234.34 141.06V152.83H231.29V126.94L231.28 126.95Z" fill="#372248"/>
<path d="M250.78 143.98C250.78 138.8 254.61 134.76 260 134.76C264.65 134.76 268.4 137.99 268.44 143.66C268.44 143.98 268.44 144.19 268.4 144.58H253.86C253.97 147.91 256.48 150.4 259.99 150.4C262.72 150.4 264.42 149.19 265.52 147.32L267.93 148.99C266.33 151.58 263.64 153.21 259.95 153.21C254.45 153.21 250.77 149.2 250.77 143.99L250.78 143.98ZM254.08 142.1H265.32C264.89 139.19 262.59 137.45 259.89 137.45C257.19 137.45 254.64 139.15 254.07 142.1H254.08Z" fill="#372248"/>
<path d="M272.12 128.9C272.12 127.73 273.11 126.74 274.32 126.74C275.53 126.74 276.48 127.73 276.48 128.9C276.48 130.07 275.52 131.06 274.32 131.06C273.12 131.06 272.12 130.1 272.12 128.9ZM272.76 135.11H275.81V152.84H272.76V135.11Z" fill="#372248"/>
<path d="M280.2 143.98C280.2 138.94 283.85 134.76 289.14 134.76C291.44 134.76 293.5 135.54 294.92 137.07V126.96H297.97V152.85H294.92V150.9C293.5 152.42 291.44 153.2 289.14 153.2C283.86 153.2 280.2 149.02 280.2 143.98ZM294.92 147.45V140.46C293.89 138.83 292.01 137.55 289.39 137.55C285.81 137.55 283.36 140.42 283.36 143.97C283.36 147.52 285.81 150.39 289.39 150.39C292.01 150.39 293.89 149.11 294.92 147.45Z" fill="#372248"/>
<path d="M311.61 128.9C311.61 127.73 312.6 126.74 313.81 126.74C315.02 126.74 315.97 127.73 315.97 128.9C315.97 130.07 315.01 131.06 313.81 131.06C312.61 131.06 311.61 130.1 311.61 128.9ZM312.25 135.11H315.3V152.84H312.25V135.11Z" fill="#372248"/>
<path d="M321.08 135.11H324.13V137.34C325.37 135.57 327.5 134.75 329.73 134.75C333.74 134.75 336.47 137.52 336.47 141.95V152.84H333.46V142.41C333.46 139.33 331.76 137.55 329.03 137.55C326.55 137.55 324.85 139 324.14 141.06V152.83H321.09V135.1L321.08 135.11Z" fill="#372248"/>
<path d="M347.07 135.11H350.47L356.53 148.51L362.59 135.11H365.99L357.8 152.84H355.25L347.06 135.11H347.07Z" fill="#372248"/>
<path d="M367.31 143.98C367.31 138.8 371.14 134.76 376.53 134.76C381.18 134.76 384.93 137.99 384.97 143.66C384.97 143.98 384.97 144.19 384.93 144.58H370.39C370.5 147.91 373.01 150.4 376.52 150.4C379.25 150.4 380.95 149.19 382.05 147.32L384.46 148.99C382.86 151.58 380.17 153.21 376.48 153.21C370.98 153.21 367.3 149.2 367.3 143.99L367.31 143.98ZM370.61 142.1H381.85C381.43 139.19 379.12 137.45 376.42 137.45C373.72 137.45 371.17 139.15 370.6 142.1H370.61Z" fill="#372248"/>
<path d="M389.29 135.11H392.34V137.73C393.05 136.28 395 134.93 397.13 134.93C397.73 134.93 398.23 135 398.69 135.11L398.3 138.16C397.8 137.98 397.27 137.95 396.77 137.95C395 137.95 393.05 139.16 392.34 141.35V152.84H389.29V135.11Z" fill="#372248"/>
<path d="M404.08 147.59V137.91H399.61V135.11H404.08V130.07H407.13V135.11H412.63V137.91H407.13V147.2C407.13 149.47 408.37 150.28 409.97 150.28C411.14 150.28 411.99 149.93 412.52 149.61L413.44 152.2C412.69 152.55 411.42 153.02 409.61 153.02C406.63 153.02 404.08 151.28 404.08 147.6V147.59Z" fill="#372248"/>
<path d="M416.73 135.11H419.78V137.73C420.49 136.28 422.44 134.93 424.57 134.93C425.17 134.93 425.67 135 426.13 135.11L425.74 138.16C425.24 137.98 424.71 137.95 424.21 137.95C422.44 137.95 420.49 139.16 419.78 141.35V152.84H416.73V135.11Z" fill="#372248"/>
<path d="M427.37 143.98C427.37 138.87 431.31 134.76 436.66 134.76C442.01 134.76 445.91 138.87 445.91 143.98C445.91 149.09 441.97 153.2 436.66 153.2C431.35 153.2 427.37 149.09 427.37 143.98ZM442.8 143.98C442.8 140.43 440.35 137.6 436.67 137.6C432.99 137.6 430.5 140.44 430.5 143.98C430.5 147.52 432.98 150.36 436.67 150.36C440.36 150.36 442.8 147.52 442.8 143.98Z" fill="#372248"/>
<path d="M465.06 152.84H462.01V150.61C460.77 152.38 458.64 153.2 456.66 153.2C452.76 153.2 450.03 150.43 450.03 146V135.11H453.08V145.53C453.08 148.62 454.71 150.39 457.33 150.39C459.6 150.39 461.27 148.94 462.01 146.88V135.11H465.06V152.84Z" fill="#372248"/>
<path d="M481.47 140.07L477.07 152.84H474.37L468.34 135.11H471.53L475.82 148.05L480.25 135.11H482.59L487.02 148.05L491.31 135.11H494.54L488.51 152.84H485.81L481.45 140.07H481.47Z" fill="#372248"/>
<path d="M496.4 143.98C496.4 138.94 500.05 134.76 505.34 134.76C507.64 134.76 509.7 135.54 511.12 137.07V126.96H514.17V152.85H511.12V150.9C509.7 152.42 507.64 153.2 505.34 153.2C500.06 153.2 496.4 149.02 496.4 143.98ZM511.12 147.45V140.46C510.09 138.83 508.21 137.55 505.59 137.55C502.01 137.55 499.56 140.42 499.56 143.97C499.56 147.52 502.01 150.39 505.59 150.39C508.21 150.39 510.09 149.11 511.12 147.45Z" fill="#372248"/>
<path d="M518.52 143.98C518.52 138.8 522.35 134.76 527.74 134.76C532.39 134.76 536.14 137.99 536.18 143.66C536.18 143.98 536.18 144.19 536.14 144.58H521.6C521.71 147.91 524.22 150.4 527.73 150.4C530.46 150.4 532.16 149.19 533.26 147.32L535.67 148.99C534.07 151.58 531.38 153.21 527.69 153.21C522.19 153.21 518.51 149.2 518.51 143.99L518.52 143.98ZM521.82 142.1H533.06C532.63 139.19 530.33 137.45 527.63 137.45C524.93 137.45 522.38 139.15 521.81 142.1H521.82Z" fill="#372248"/>
<path d="M549.04 126.95H552.09V137.34C553.33 135.57 555.46 134.75 557.69 134.75C561.7 134.75 564.43 137.52 564.43 141.95V152.84H561.42V142.41C561.42 139.33 559.72 137.55 556.99 137.55C554.51 137.55 552.81 139 552.1 141.06V152.83H549.05V126.94L549.04 126.95Z" fill="#372248"/>
<path d="M568.54 143.98C568.54 138.94 572.19 134.76 577.48 134.76C579.78 134.76 581.84 135.54 583.26 137.07V135.12H586.31V152.85H583.26V150.9C581.84 152.42 579.78 153.2 577.48 153.2C572.2 153.2 568.54 149.02 568.54 143.98ZM583.26 147.45V140.46C582.23 138.83 580.35 137.55 577.73 137.55C574.15 137.55 571.7 140.42 571.7 143.97C571.7 147.52 574.15 150.39 577.73 150.39C580.35 150.39 582.23 149.11 583.26 147.45Z" fill="#372248"/>
<path d="M592.05 135.11H595.1V137.34C596.34 135.57 598.47 134.75 600.7 134.75C604.71 134.75 607.44 137.52 607.44 141.95V152.84H604.43V142.41C604.43 139.33 602.73 137.55 600 137.55C597.52 137.55 595.82 139 595.11 141.06V152.83H592.06V135.1L592.05 135.11Z" fill="#372248"/>
<path d="M611.55 143.98C611.55 138.94 615.2 134.76 620.49 134.76C622.79 134.76 624.85 135.54 626.27 137.07V126.96H629.32V152.85H626.27V150.9C624.85 152.42 622.79 153.2 620.49 153.2C615.21 153.2 611.55 149.02 611.55 143.98ZM626.27 147.45V140.46C625.24 138.83 623.36 137.55 620.74 137.55C617.16 137.55 614.71 140.42 614.71 143.97C614.71 147.52 617.16 150.39 620.74 150.39C623.36 150.39 625.24 149.11 626.27 147.45Z" fill="#372248"/>
<path d="M633.67 143.98C633.67 138.8 637.5 134.76 642.89 134.76C647.54 134.76 651.29 137.99 651.33 143.66C651.33 143.98 651.33 144.19 651.29 144.58H636.75C636.86 147.91 639.37 150.4 642.88 150.4C645.61 150.4 647.31 149.19 648.41 147.32L650.82 148.99C649.22 151.58 646.53 153.21 642.84 153.21C637.34 153.21 633.66 149.2 633.66 143.99L633.67 143.98ZM636.97 142.1H648.21C647.78 139.19 645.48 137.45 642.78 137.45C640.08 137.45 637.53 139.15 636.96 142.1H636.97Z" fill="#372248"/>
<path d="M655.65 135.11H658.7V137.34C659.94 135.57 662.07 134.75 664.3 134.75C668.31 134.75 671.04 137.52 671.04 141.95V152.84H668.03V142.41C668.03 139.33 666.33 137.55 663.6 137.55C661.12 137.55 659.42 139 658.71 141.06V152.83H655.66V135.1L655.65 135.11Z" fill="#372248"/>
<defs>
<linearGradient id="paint0_linear_2_3" x1="0" y1="66.6499" x2="940.65" y2="66.6499" gradientUnits="userSpaceOnUse">
<stop stop-color="#6C0325"/>
<stop offset="0.29" stop-color="#8E113C"/>
<stop offset="0.51" stop-color="#AC2E32"/>
<stop offset="0.74" stop-color="#C4453B"/>
<stop offset="0.94" stop-color="#E1603D"/>
</linearGradient>
<linearGradient id="paint1_linear_2_3" x1="-2.00802e-05" y1="66.65" x2="940.65" y2="66.65" gradientUnits="userSpaceOnUse">
<stop stop-color="#6C0325"/>
<stop offset="0.29" stop-color="#8E113C"/>
<stop offset="0.51" stop-color="#AC2E32"/>
<stop offset="0.74" stop-color="#C4453B"/>
<stop offset="0.94" stop-color="#E1603D"/>
</linearGradient>
<linearGradient id="paint2_linear_2_3" x1="-7.13065e-06" y1="66.65" x2="940.65" y2="66.65" gradientUnits="userSpaceOnUse">
<stop stop-color="#6C0325"/>
<stop offset="0.29" stop-color="#8E113C"/>
<stop offset="0.51" stop-color="#AC2E32"/>
<stop offset="0.74" stop-color="#C4453B"/>
<stop offset="0.94" stop-color="#E1603D"/>
</linearGradient>
<linearGradient id="paint3_linear_2_3" x1="-3.07296e-05" y1="66.6501" x2="940.65" y2="66.6501" gradientUnits="userSpaceOnUse">
<stop stop-color="#6C0325"/>
<stop offset="0.29" stop-color="#8E113C"/>
<stop offset="0.51" stop-color="#AC2E32"/>
<stop offset="0.74" stop-color="#C4453B"/>
<stop offset="0.94" stop-color="#E1603D"/>
</linearGradient>
<linearGradient id="paint4_linear_2_3" x1="8.99427e-06" y1="66.65" x2="940.65" y2="66.65" gradientUnits="userSpaceOnUse">
<stop stop-color="#6C0325"/>
<stop offset="0.29" stop-color="#8E113C"/>
<stop offset="0.51" stop-color="#AC2E32"/>
<stop offset="0.74" stop-color="#C4453B"/>
<stop offset="0.94" stop-color="#E1603D"/>
</linearGradient>
<linearGradient id="paint5_linear_2_3" x1="-0.000125673" y1="66.65" x2="940.65" y2="66.65" gradientUnits="userSpaceOnUse">
<stop stop-color="#6C0325"/>
<stop offset="0.29" stop-color="#8E113C"/>
<stop offset="0.51" stop-color="#AC2E32"/>
<stop offset="0.74" stop-color="#C4453B"/>
<stop offset="0.94" stop-color="#E1603D"/>
</linearGradient>
<linearGradient id="paint6_linear_2_3" x1="-0.000130029" y1="66.6501" x2="940.65" y2="66.6501" gradientUnits="userSpaceOnUse">
<stop stop-color="#6C0325"/>
<stop offset="0.29" stop-color="#8E113C"/>
<stop offset="0.51" stop-color="#AC2E32"/>
<stop offset="0.74" stop-color="#C4453B"/>
<stop offset="0.94" stop-color="#E1603D"/>
</linearGradient>
<linearGradient id="paint7_linear_2_3" x1="-0.000290974" y1="66.65" x2="940.65" y2="66.65" gradientUnits="userSpaceOnUse">
<stop stop-color="#6C0325"/>
<stop offset="0.29" stop-color="#8E113C"/>
<stop offset="0.51" stop-color="#AC2E32"/>
<stop offset="0.74" stop-color="#C4453B"/>
<stop offset="0.94" stop-color="#E1603D"/>
</linearGradient>
<linearGradient id="paint8_linear_2_3" x1="-8.0918e-05" y1="66.65" x2="940.65" y2="66.65" gradientUnits="userSpaceOnUse">
<stop stop-color="#6C0325"/>
<stop offset="0.29" stop-color="#8E113C"/>
<stop offset="0.51" stop-color="#AC2E32"/>
<stop offset="0.74" stop-color="#C4453B"/>
<stop offset="0.94" stop-color="#E1603D"/>
</linearGradient>
<linearGradient id="paint9_linear_2_3" x1="4.77173e-05" y1="66.65" x2="940.65" y2="66.65" gradientUnits="userSpaceOnUse">
<stop stop-color="#6C0325"/>
<stop offset="0.29" stop-color="#8E113C"/>
<stop offset="0.51" stop-color="#AC2E32"/>
<stop offset="0.74" stop-color="#C4453B"/>
<stop offset="0.94" stop-color="#E1603D"/>
</linearGradient>
<linearGradient id="paint10_linear_2_3" x1="0.000224225" y1="66.6501" x2="940.65" y2="66.6501" gradientUnits="userSpaceOnUse">
<stop stop-color="#6C0325"/>
<stop offset="0.29" stop-color="#8E113C"/>
<stop offset="0.51" stop-color="#AC2E32"/>
<stop offset="0.74" stop-color="#C4453B"/>
<stop offset="0.94" stop-color="#E1603D"/>
</linearGradient>
<linearGradient id="paint11_linear_2_3" x1="-4.76186e-05" y1="66.65" x2="940.65" y2="66.65" gradientUnits="userSpaceOnUse">
<stop stop-color="#6C0325"/>
<stop offset="0.29" stop-color="#8E113C"/>
<stop offset="0.51" stop-color="#AC2E32"/>
<stop offset="0.74" stop-color="#C4453B"/>
<stop offset="0.94" stop-color="#E1603D"/>
</linearGradient>
</defs>
</svg>
