<?xml version="1.0" encoding="UTF-8"?>
<svg id="Layer_2" data-name="Layer 2" xmlns="http://www.w3.org/2000/svg" viewBox="0 0 243.07 121.45">
  <defs>
    <style>
      .cls-1 {
        fill: #f4c3b5;
      }

      .cls-2 {
        fill: #eb967f;
      }

      .cls-3 {
        fill: #fff;
      }

      .cls-4 {
        fill: #eb947d;
      }

      .cls-5 {
        fill: #fae2dc;
      }

      .cls-6 {
        fill: #b7553b;
      }

      .cls-7, .cls-8 {
        fill: #e26645;
      }

      .cls-9, .cls-10 {
        fill: #e1603d;
      }

      .cls-11 {
        fill: #3d294d;
      }

      .cls-10 {
        fill-rule: evenodd;
      }

      .cls-8 {
        opacity: .69;
      }
    </style>
  </defs>
  <g id="OBJECTS">
    <g>
      <g>
        <polygon class="cls-9" points="229.79 44.43 190.21 89.58 14.65 89.58 14.65 60.36 61.13 45.75 229.79 44.43"/>
        <polygon class="cls-6" points="61.13 45.75 61.13 89.58 14.65 89.58 14.65 60.36 61.13 45.75"/>
      </g>
      <g>
        <path class="cls-5" d="m211.77,43.05c.22,8.27-2.94,15.98-9.23,21.45-5.4,4.71-12.25,7.46-19.25,9.04-7.86,1.8-16.29,2.25-24.53,1.23-9.57-1.18-19.92-4.31-27.52-10.45-4.81-3.88-8.29-9.07-9.85-14.9-.64-2.32-.95-4.74-.93-7.22.05-8.33,3.17-17.1,9.76-22.52.47-.38,3.2-1.78,3.29-2.22,0-.03.02-.05.02-.09,1.26-5.78,3.41-11.44,6.34-16.6.14-.26.29-.52.43-.76,2.82,3.15,5.23,6.68,7.11,10.47,6.35-1.73,12.08-2.54,17.14-2.79,4.79-.24,9,.03,12.57.55,9.35,1.35,14.47,4.29,15.02,3.77,1.83-1.71,3.77-3.69,5.82-5.54.43-.38.87-.78,1.32-1.16.07-.07.16-.14.23-.19.42-.36.87-.71,1.3-1.06.52-.42,1.02-.8,1.56-1.14.21-.16.42-.29.64-.43.31-.23.62-.42.93-.59.12-.09.26-.16.38-.22.23,1.12.4,2.56.52,4.12.03.47.05.95.09,1.45.07,1.07.1,2.18.14,3.27.12,4.1.07,8.03.03,9.31v.43s2.15,4.74,2.98,6.8c.71,1.77,1.33,3.44,1.85,5.11,1.09,3.48,1.73,6.87,1.85,10.87Z"/>
        <path class="cls-5" d="m216.46,83.43c-.14,1.11-.61,2.16-1.32,3.05-1.37,1.78-3.63,2.87-5.78,2.22,2.35.68,3.18,3.88,2.13,6.09-1.04,2.22-3.34,3.55-5.61,4.47-2.6,1.06-5.31,1.75-8.07,2.18-2.37.4-4.78.61-7.17.71-12.76.62-25.5-1.23-38.23-2.11-1.78-.12-3.57-.22-5.35-.29-11.03-.47-22.17.19-32.47,4.02-3.39,1.26-6.47,2.09-9.99,1.25-3.51-.85-6.91-2.6-9.19-5.42-1.13-1.38-1.97-3.08-2.01-4.88-.02-1.23.35-2.44.73-3.6,1.66-5.16,3.58-10.21,5.75-15.18.87-1.94,1.77-3.88,3.05-5.57,1.51-2.01,3.5-3.58,5.49-5.12,4.22-3.29,8.55-6.53,13.43-8.71,11.11-4.92,23.94-3.79,35.83-1.28,3.12.68,5.73,1.66,8.71,2.77,10.82,4.07,21.72,7.89,32.71,11.44,1.3.45,2.6.87,3.91,1.28,3.2,1.02,6.47,2.06,9.16,4.08,2.68,2.03,4.69,5.28,4.29,8.62Z"/>
        <path class="cls-5" d="m112.92,91.82c2.34.45,4.73.45,7.11.59,1.51.07,3.03.23,4.5.57,3.91.9,7.84,4.08,7.48,8.08-.21,2.23-1.75,4.17-3.65,5.35-1.9,1.19-4.12,1.75-6.32,2.16-2.46.47-4.95.88-7.44,1.21-12.05,1.64-24.44,1.82-36.61.71-5.42-.48-10.8-1.23-16.08-2.2-2.01-.36-4.05-.81-6.08-1.37-3.77-.99-7.53-2.3-11.06-4-7.3-3.51-13.62-8.72-17.12-16.34-.4-.88-.76-1.78-1.07-2.7-3.83-10.59-2.39-22.67.74-33.25,2.32-7.84,6.21-15.23,11.51-21.39,1.44-1.68,2.98-3.27,4.62-4.76,1.42-1.26,2.91-2.46,4.47-3.57,1.28-.9,2.6-1.75,3.96-2.53,12.91-7.36,28.52-8.34,42.99-5.31,3.44.71,6.82,1.66,10.07,2.8,13.28,4.67,24.96,14.28,39.67,14.07l-.48,3.32c-1.56,17.53-8.78,34.58-20.48,48.29-3.2,3.76-6.75,7.27-10.75,10.25Z"/>
        <path class="cls-11" d="m94.14,49.26c-1.92,2.27-4.34,4.24-7.22,4.97-2.89.73-6.25,0-8.1-2.32-1.44-1.78-1.82-4.22-3.25-5.99-3.46-4.29-10.18-2.41-15.68-2.22-6.14.21-12.34-2.41-16.48-6.94-2.34-2.58-3.83-5.09-4.57-7.51,2.67-3.13,5.71-5.94,9.09-8.33,1.28-.9,2.6-1.75,3.96-2.53,12.91-7.36,28.52-8.34,42.99-5.31-1.44,3.81-4.92,7.18-4.43,11.25.48,4.15,4.86,6.66,6.73,10.4,2.35,4.69.33,10.52-3.05,14.52Z"/>
        <path class="cls-9" d="m164.74,11.54c-.03,3.72-.59,7.55-2.48,10.77-2.39,4.05-6.56,6.65-10.06,9.76-3.7,3.31-6.73,7.29-10.28,10.73-4.78,4.66-13.88,8.83-20.53,6.59-.64-2.32-.95-4.74-.93-7.22.05-8.33,3.17-17.1,9.76-22.52.47-.38,3.2-1.78,3.29-2.22,0-.03.02-.05.02-.09,1.26-5.78,3.41-11.44,6.34-16.6.14-.26.29-.52.43-.76,2.82,3.15,5.23,6.68,7.11,10.47,6.35-1.73,12.08-2.54,17.14-2.79.14,1.28.21,2.58.19,3.86Z"/>
        <path class="cls-11" d="m209.91,32.18c-5.56,1.44-11.89.52-16.84-2.51-5.97-3.65-12.98-12.84-15.96-21.43,9.35,1.35,14.47,4.29,15.02,3.77,1.83-1.71,3.77-3.69,5.82-5.54.43-.4.87-.78,1.32-1.16.07-.07.16-.14.23-.19.43-.36.87-.73,1.3-1.06.52-.42,1.02-.8,1.56-1.14.21-.16.42-.29.64-.43.31-.23.62-.42.93-.59.12-.09.26-.16.38-.22.23,1.12.4,2.56.52,4.12.03.48.07.97.09,1.45.07,1.07.1,2.18.14,3.27.12,4.1.07,8.03.03,9.31v.43s2.15,4.74,2.98,6.8c.71,1.77,1.33,3.44,1.85,5.11Z"/>
        <path class="cls-11" d="m197.82,101.43c-2.37.4-4.78.61-7.17.71-12.76.62-25.5-1.23-38.23-2.11-1.78-.12-3.57-.22-5.35-.29.52-1.18,1.32-2.41,2.42-3.72,3.41-4.05,7.89-7.25,13.1-8.39,2.46-.55,5.14-.61,7.36.59,2.08,1.12,3.48,3.22,5.54,4.38,5.57,3.15,13.41-1.63,18.71,1.97,1.4.95,2.41,2.42,3.03,4,.35.9.57,1.9.59,2.87Z"/>
        <path class="cls-5" d="m142.01,13.81c-.02.31-.03.66-.17.93-.24.45-.74.68-1.23.85-2.27.87-4.66,1.47-7.08,1.77,1.26-5.78,3.41-11.44,6.34-16.6.38,1,.69,2.03.95,3.05.87,3.25,1.28,6.63,1.19,10Z"/>
        <path class="cls-5" d="m205.09,19.84c-1.02-.83-1.94-1.77-2.75-2.79-.57-.73-1.12-1.52-1.26-2.44-.14-.78.02-1.57.17-2.35.59-2.86,1.18-5.73,2.06-8.52.09-.26.31-.97.62-1.83.12-.09.26-.16.38-.22.23,1.12.4,2.56.52,4.12.03.48.07.97.09,1.45.07,1.07.1,2.18.14,3.27.12,4.1.07,8.03.03,9.31Z"/>
        <path class="cls-9" d="m49.03,71.38c.26,3.72-1.56,7.53-4.62,9.64-1.94,1.33-4.24,2.01-6.54,2.49-3.69.76-7.62,1.04-11.29.38-3.83-10.59-2.39-22.67.74-33.25,2.32-7.84,6.21-15.23,11.51-21.39,1.44-1.68,2.98-3.27,4.62-4.76,1.02.55,1.99,1.28,2.93,2.18,3.05,2.94,4.48,7.27,4.62,11.49.14,4.24-.9,8.43-2.22,12.44-1.18,3.58-2.58,7.24-2.16,10.97.36,3.36,2.16,6.44,2.41,9.8Z"/>
        <path class="cls-11" d="m80.48,109.46c-.76.5-1.61.83-2.49,1.04-5.42-.48-10.8-1.23-16.08-2.2-2.01-.36-4.05-.81-6.08-1.37-3.77-.99-7.53-2.3-11.06-4,3.18-4.86,11.44-10.82,13.36-12.76,2.3-2.35,4.66-4.81,7.74-5.97,3.08-1.16,7.1-.54,8.78,2.28,2.25,3.79-.66,9.29,2.01,12.79,1.68,2.22,5.23,2.98,5.92,5.68.43,1.71-.62,3.53-2.09,4.5Z"/>
        <path class="cls-9" d="m216.46,83.43c-.14,1.11-.61,2.16-1.32,3.05-.38-.29-.76-.61-1.14-.9-3.41-2.63-7.86-3.43-11.8-5.12-2.27-.97-4.55-2.48-5.26-4.83-.66-2.22.4-4.6,2.16-6.18,1.3.45,2.6.87,3.91,1.28,3.2,1.02,6.47,2.06,9.16,4.08,2.68,2.03,4.69,5.28,4.29,8.62Z"/>
        <g>
          <path class="cls-3" d="m159.98,35.28c0,3.06-3.57,5.59-8.22,5.99-.42.05-.85.07-1.3.07s-.88-.02-1.3-.07c-4.66-.4-8.22-2.93-8.22-5.99s3.57-5.59,8.22-5.99c.42-.05.85-.07,1.3-.07s.88.02,1.3.07c4.66.4,8.22,2.93,8.22,5.99Z"/>
          <path class="cls-11" d="m153.06,35.28c0,2.56-.52,4.79-1.3,5.99-.42.05-.85.07-1.3.07s-.88-.02-1.3-.07c-.78-1.19-1.3-3.43-1.3-5.99s.52-4.79,1.3-5.99c.42-.05.85-.07,1.3-.07s.88.02,1.3.07c.78,1.19,1.3,3.43,1.3,5.99Z"/>
        </g>
        <g>
          <path class="cls-3" d="m199.79,35.28c0,3.06-3.57,5.59-8.22,5.99-.42.05-.85.07-1.3.07s-.88-.02-1.3-.07c-4.66-.4-8.22-2.93-8.22-5.99s3.57-5.59,8.22-5.99c.42-.05.85-.07,1.3-.07s.88.02,1.3.07c4.66.4,8.22,2.93,8.22,5.99Z"/>
          <path class="cls-11" d="m192.87,35.28c0,2.56-.52,4.79-1.3,5.99-.42.05-.85.07-1.3.07s-.88-.02-1.3-.07c-.78-1.19-1.3-3.43-1.3-5.99s.52-4.79,1.3-5.99c.42-.05.85-.07,1.3-.07s.88.02,1.3.07c.78,1.19,1.3,3.43,1.3,5.99Z"/>
        </g>
        <g>
          <path class="cls-3" d="m162.19,39.07c.07-.12.15-.23.22-.35,1.89-2.9,5.06-6.42,9.14-5.67,3.35.62,5.7,3.72,7.5,6.21,2.21,3.06,3.73,6.57,4.35,10.22,1.9,11.11-17.15,13.18-23.65,6.92-4.82-4.65-.43-12.86,2.43-17.33Z"/>
          <g>
            <path class="cls-11" d="m169.86,46.33c1.95.16,3.86-.75,5.36-2,.82-.68,1.56-1.5,1.9-2.51.34-1.01.18-2.23-.59-2.96-.66-.62-1.62-.77-2.52-.89-2.37-.32-4.79-.58-7.14-.17-.49.09-.99.21-1.38.51-2.99,2.33,1.76,7.81,4.37,8.02Z"/>
            <path class="cls-11" d="m178.12,50.75c-.12-.36-.59-.34-.72,0-.49,1.27-1.14,5.29-4.05,3.01-.9-.71-1.06-2.29-1.23-3.33-.39-2.36-.36-4.71-.53-7.08-.04-.59-.52-.81-.93-.71-.41-.1-.89.12-.93.71-.17,2.37-.14,4.72-.53,7.08-.17,1.04-.33,2.62-1.23,3.33-2.91,2.28-3.56-1.74-4.05-3.01-.13-.34-.59-.36-.72,0-.98,2.88,2.12,6.26,5.05,4.83,1.48-.72,2.07-2.27,2.41-3.78.34,1.51.93,3.06,2.41,3.78,2.93,1.43,6.04-1.96,5.05-4.83Z"/>
          </g>
        </g>
        <path class="cls-9" d="m105.89,68.11c-5.32-6.8-14.66-11.3-22.88-7.03-.66.34-.18,1.26.48,1.14,17.91-3.4,28.36,14.79,24.01,30.52-.52,1.9,2.41,2.7,2.95.81,2.49-8.68,1.06-18.24-4.56-25.44Z"/>
        <path class="cls-9" d="m107.89,92.88c-.56.21-.65,1.06,0,1.23,5.54,1.45,23.3-.94,22.05,8.3-.16,1.19,1.49,2.22,2.15.91,6.05-12.12-18.23-12.67-24.2-10.43Z"/>
        <path class="cls-9" d="m185.26,78.41c-.7-.03-1.03,1.06-.37,1.36,6.96,3.19,27.42,5.04,25.82,15.8-.1.67.77,1.16,1.16.49,6.71-11.56-19.87-17.33-26.62-17.65Z"/>
        <path class="cls-9" d="m192.07,68.36c-23.68,9.14-53.4,5.15-68.33-17.08-.54-.8-1.69-.11-1.28.75,11.72,25.24,47.3,28.7,70.35,19.01,1.61-.68.95-3.34-.74-2.69Z"/>
        <path class="cls-9" d="m173.24,14.72c-.16-.92-1.03-3.54-2.44-2.14-.89.88-.47,2.77-.45,3.85.04,1.86.07,3.72.15,5.58.09,2.08,3.1,2.07,3.22,0,.14-2.46-.06-4.86-.48-7.29Z"/>
        <path class="cls-9" d="m167.96,16.15c-.19-.99-.58-2.34-1.86-2.01-.34.09-.55.41-.57.74.07-.22.05-.17-.08.15-.06.29-.11.59-.17.89-.08.51-.1,1.02-.12,1.54-.05,1.19-.04,2.35.08,3.53.19,1.94,3.04,2.02,3.08,0,.03-1.61-.06-3.26-.37-4.85Z"/>
        <path class="cls-9" d="m178.79,18.93c-.54-1.2-2.29-.51-2.32.63-.04,1.31.07,2.52.25,3.81.18,1.31,2.34,1.24,2.58,0,.32-1.62.17-2.94-.51-4.44Z"/>
        <path class="cls-9" d="m104.56,27.34c-1.86-.45-3.68-.63-5.59-.46-1.06.09-1.5,1.83-.27,2.02,1.72.26,3.44.71,5.06,1.34,1.78.69,2.71-2.43.8-2.89Z"/>
        <path class="cls-9" d="m107.52,23.36c-1.73-.79-4.15-1.55-6.02-.78-.82.34-1.08,1.41-.25,1.93.75.47,1.64.63,2.47.9.87.28,1.75.49,2.64.72,1.6.41,2.78-2.03,1.17-2.77Z"/>
        <path class="cls-9" d="m65.46,69.04c-1.61-.53-3.95-.84-5.49.06-.68.4-.82,1.38-.25,1.94,1.27,1.25,3.58,1.52,5.28,1.39,1.93-.14,2.37-2.77.46-3.4Z"/>
        <path class="cls-9" d="m67.09,62.6c-1.2-1.17-3.59-1.82-5.14-.99-.72.39-.89,1.53-.27,2.08.61.54,1.34.71,2.09.95.77.25,1.49.42,2.31.38,1.19-.06,1.92-1.53,1-2.42Z"/>
        <path class="cls-9" d="m73.41,56.3c-.68-.55-1.32-1.14-2.09-1.58-.71-.4-1.45-.68-2.22-.95-.72-.26-1.12.59-.89,1.15.73,1.7,1.81,2.76,3.37,3.73,1.41.88,3.17-1.27,1.82-2.36Z"/>
        <path class="cls-9" d="m130.7,79.86c-.5-.94-1.15-1.58-2.03-2.17-.37-.25-.77-.41-1.18-.58-.49-.19-.91-.17-1.39-.27-.78-.15-1.78.74-1.18,1.53.24.32.36.69.61,1.01.28.35.55.71.85,1.04.62.68,1.27,1.22,2.04,1.72,1.46.95,3.02-.88,2.28-2.28Z"/>
        <path class="cls-9" d="m134.48,74.72c-.89-.32-1.65-.99-2.63-1.02-.65-.02-1.07.54-1.13,1.13-.14,1.39,1.3,2.53,2.42,3.05,2.26,1.05,3.7-2.3,1.33-3.16Z"/>
        <path class="cls-9" d="m175.51,83.21c-1.12-.54-2.34-1.12-3.61-1.17-.76-.03-1.28.89-.88,1.53.67,1.05,1.78,1.83,2.8,2.52,1.79,1.21,3.6-1.94,1.68-2.87Z"/>
        <path class="cls-9" d="m181.29,80.46c-.58-.87-1.5-1.34-2.44-1.74-1.29-.54-2.59.86-1.55,2.01.67.74,1.43,1.52,2.42,1.77,1.12.28,2.27-.99,1.57-2.05Z"/>
      </g>
      <g>
        <polygon class="cls-4" points="229.79 44.43 229.79 104.19 189.95 121.45 14.65 121.45 14.65 60.36 189.95 60.36 229.79 44.43"/>
        <polygon class="cls-7" points="229.79 44.43 229.79 104.19 189.95 121.45 189.95 60.36 229.79 44.43"/>
        <polygon class="cls-2" points="189.95 60.36 204.56 82.94 243.07 67 229.79 44.43 189.95 60.36"/>
        <rect class="cls-1" x="86.36" y="60.36" width="23.9" height="9.78"/>
        <rect class="cls-1" x="87.31" y="111.67" width="23.9" height="9.78"/>
        <g>
          <path class="cls-10" d="m116.19,92.73c-.2,6.91-6.3,11.55-12.84,13.55-6.06,1.85-12.55.38-16.57-4.56-5-6.15-8.87-14.64-4.36-21.17,4.68-6.77,14.1-6.82,21.79-4.05,6.95,2.51,12.19,8.77,11.98,16.24Z"/>
          <path class="cls-5" d="m108.17,92.28c-.25-1.3-.03-2.71.45-3.88.24-.59,1.28-2.2.76-2.85-.49-.62-1.74.4-2.18.72-.94.68-1.82,1.45-2.56,2.46-.19.25-.44.58-.67.92-.18-.27-.41-.53-.66-.75-1.8-1.57-4.22-2.03-6.35-2.24-2.38-.23-4.8.06-7.07,1.04-1.58.69-3.28,2.46-1.83,4.63.27.41.64.75,1.05,1.03.59.41,1.26.71,1.82.96,1.07.47,2.18.75,3.3.88,2.2.24,4.46-.12,6.55-.96,1.03-.42,2.3-.89,3.1-1.87.06-.08.12-.16.17-.24.08.1.16.19.22.28.28.34.56.67.85.98.86.94,1.78,1.78,2.76,2.52.46.35,1.4.69,1.25-.45-.15-1.12-.74-2.05-.96-3.16Z"/>
        </g>
        <path class="cls-8" d="m82.48,121.45H14.65v-61.09h19.77c2.16,6.55,4.75,12.95,7.97,19.07,9.12,17.37,23.27,31.95,40.09,42.02Z"/>
      </g>
      <polygon class="cls-7" points="14.65 60.36 0 82.94 14.65 76.89 14.65 60.36"/>
    </g>
  </g>
</svg>